<?xml version="1.0" standalone="no"?>
<!DOCTYPE svg PUBLIC "-//W3C//DTD SVG 20010904//EN"
 "http://www.w3.org/TR/2001/REC-SVG-20010904/DTD/svg10.dtd">
<svg version="1.0" xmlns="http://www.w3.org/2000/svg"
 width="500.000000pt" height="500.000000pt" viewBox="0 0 500.000000 500.000000"
 preserveAspectRatio="xMidYMid meet">
<metadata>
Created by potrace 1.14, written by Peter Selinger 2001-2017
</metadata>
<g transform="translate(0.000000,500.000000) scale(0.100000,-0.100000)"
fill="#000000" stroke="none">
<path d="M4226 4573 c-27 -142 -52 -268 -57 -280 -5 -13 -17 -23 -26 -23 -10
0 -119 -101 -246 -228 -212 -212 -227 -230 -227 -263 0 -40 -24 -69 -57 -69
-13 0 -49 -32 -99 -87 l-79 -86 -7 43 c-14 84 -54 112 -95 68 -20 -23 -43
-104 -43 -155 0 -14 -12 -39 -26 -56 -18 -21 -24 -37 -20 -53 5 -20 -1 -27
-44 -49 -49 -25 -70 -49 -70 -81 0 -9 -20 -34 -44 -55 -54 -48 -64 -79 -38
-123 l19 -32 -45 -49 c-59 -66 -115 -150 -174 -260 l-47 -90 -3 225 -3 225
-40 14 c-62 21 -221 25 -277 8 -26 -8 -49 -13 -51 -11 -2 2 2 39 9 81 7 43 13
116 13 162 1 74 -2 88 -21 109 -21 22 -22 24 -5 33 15 9 17 27 17 137 0 212
-38 378 -100 437 -16 15 -41 52 -55 82 -57 115 -175 210 -305 246 -231 64
-515 -15 -682 -189 -47 -50 -103 -142 -124 -208 -9 -28 -39 -98 -66 -156 -27
-58 -51 -114 -52 -125 -1 -11 -79 -96 -173 -190 -376 -377 -533 -699 -533
-1096 0 -336 129 -703 403 -1146 l75 -121 -30 -44 c-73 -109 -177 -332 -227
-489 -11 -35 -16 -38 -96 -63 -127 -40 -288 -125 -385 -204 l-85 -68 -3 -87
c-1 -48 0 -87 4 -87 3 0 33 25 67 55 71 65 246 155 405 209 93 32 294 91 602
176 799 221 1278 509 1566 940 58 89 68 98 102 104 64 10 63 10 42 -44 -135
-343 -421 -612 -862 -812 -188 -85 -392 -155 -738 -252 -599 -170 -713 -207
-845 -273 -91 -47 -178 -115 -214 -169 l-32 -49 63 -3 c59 -3 64 -1 83 25 41
57 98 113 142 138 24 15 46 25 48 23 3 -2 -2 -28 -10 -58 -8 -30 -15 -72 -15
-92 l0 -38 1430 0 c787 0 1430 4 1430 8 0 23 -86 217 -136 306 -103 185 -261
401 -428 588 l-95 106 69 198 c38 108 72 199 74 202 3 3 73 -11 155 -31 221
-54 324 -70 446 -71 94 -1 117 2 160 22 140 64 182 178 206 562 l11 184 49 44
c27 24 49 50 49 57 0 8 -61 142 -135 299 l-135 284 35 90 c19 49 46 129 60
176 18 64 35 99 64 134 68 82 84 125 89 234 3 75 1 104 -12 129 -22 44 -20 62
8 88 20 19 32 22 59 17 l34 -6 174 262 c95 144 175 274 177 289 4 28 22 34
342 105 69 15 130 31 135 36 6 5 -57 8 -148 6 -86 -2 -157 -1 -157 2 0 3 33
26 73 52 39 27 90 64 112 83 l40 36 -92 -46 c-51 -25 -96 -45 -99 -45 -4 0 14
18 40 41 46 41 196 212 196 224 0 3 -33 -20 -72 -52 -149 -120 -212 -168 -203
-153 5 8 21 33 35 55 75 114 74 122 -4 40 l-76 -80 36 80 c35 78 96 245 89
245 -2 0 -40 -63 -86 -140 -45 -77 -84 -138 -86 -137 -2 2 3 31 11 63 35 146
32 149 -19 22 -20 -51 -38 -94 -39 -95 -2 -2 -1 69 2 157 3 88 3 160 0 160 -2
0 -26 -116 -52 -257z m-2275 -257 c81 -28 163 -82 247 -161 71 -66 69 -73 -18
-74 -61 -2 -204 -33 -321 -70 -92 -30 -98 -34 -167 -105 -40 -41 -72 -76 -72
-78 0 -6 148 -360 153 -365 15 -15 177 -25 347 -21 177 4 192 3 160 -10 -19
-8 -78 -23 -130 -34 -79 -17 -119 -19 -235 -15 -154 6 -251 25 -437 83 l-116
37 -37 86 c-20 47 -39 92 -43 100 -3 8 24 -8 59 -35 101 -78 253 -155 352
-180 27 -6 28 -5 25 21 -3 25 -12 30 -93 59 -92 33 -271 121 -314 155 l-25 19
24 107 c27 123 13 111 185 155 122 31 322 66 430 75 115 10 139 15 127 27 -8
8 -67 11 -169 11 -185 0 -299 -20 -438 -77 -49 -20 -90 -34 -92 -32 -3 2 -1
21 3 41 11 62 105 164 220 239 106 69 251 86 375 42z m2237 -153 c8 -14 -21
-62 -135 -228 -172 -250 -169 -247 -182 -214 -5 13 -20 35 -35 48 l-25 24 42
47 c232 257 310 340 317 340 5 0 13 -8 18 -17z m-1827 -233 c20 -78 36 -173
44 -256 6 -61 5 -61 -19 -57 -28 6 -217 -21 -334 -47 -61 -13 -85 -15 -88 -7
-2 7 -26 91 -53 187 -33 117 -46 177 -39 181 6 4 27 10 47 13 20 4 97 17 171
31 74 13 162 23 195 22 l60 -2 16 -65z m-527 -197 c30 -78 56 -150 58 -159 2
-11 -8 -21 -32 -30 -72 -26 -72 -26 -134 117 -31 72 -56 136 -56 144 0 16 92
85 102 76 3 -3 31 -70 62 -148z m-678 22 l-1 -95 -33 34 -34 33 31 62 c17 33
33 61 35 61 2 0 3 -43 2 -95z m2499 -91 c18 -8 42 -25 53 -37 l21 -23 -40
-114 c-22 -63 -42 -116 -44 -119 -3 -2 -11 2 -19 8 -13 11 -13 18 0 53 26 75
13 92 -27 33 -28 -41 -30 -41 -47 -14 -11 18 -8 26 28 70 23 27 37 49 31 49
-5 0 -33 -14 -62 -30 -28 -17 -54 -29 -56 -26 -7 7 108 166 120 166 5 0 24 -7
42 -16z m-2474 -100 c9 -11 22 -14 46 -9 18 3 33 5 33 3 0 -2 7 -41 15 -88 8
-47 15 -88 15 -92 0 -10 -145 -100 -271 -169 -146 -79 -192 -110 -257 -173
-76 -73 -104 -132 -110 -232 -4 -67 0 -95 23 -169 15 -49 42 -119 60 -156 l34
-66 2 -403 c1 -278 -2 -405 -10 -413 -8 -8 -27 24 -70 115 -76 161 -125 292
-159 426 -24 96 -27 125 -26 277 0 157 2 177 28 260 65 214 200 437 410 680
81 94 208 225 217 225 4 0 12 -7 20 -16z m-223 -75 c-29 -33 -63 -74 -74 -90
-12 -17 -29 -36 -37 -42 -27 -21 -116 -146 -174 -245 -242 -411 -283 -828
-124 -1258 41 -113 127 -282 200 -391 51 -78 57 -93 41 -93 -39 0 -228 319
-293 495 -186 498 -100 957 266 1425 59 74 233 260 245 260 2 0 -20 -27 -50
-61z m2816 -74 c-1 -98 -21 -158 -83 -249 -28 -40 -171 -392 -171 -421 0 -7
48 -108 107 -226 58 -118 119 -240 135 -272 l29 -58 -75 -34 c-110 -51 -192
-68 -311 -62 -93 4 -202 30 -226 54 -4 4 -13 62 -19 128 -10 101 -15 125 -36
152 -13 17 -24 35 -24 38 0 4 33 68 73 143 60 111 75 149 81 197 3 35 18 83
35 116 l28 56 -48 52 -49 53 -65 -7 c-63 -7 -65 -7 -75 19 -23 61 30 106 125
106 48 0 66 -6 118 -37 33 -21 69 -51 80 -68 l19 -30 -6 48 c-7 62 -7 62 -69
97 -42 24 -64 30 -114 30 -53 0 -63 3 -63 18 1 52 65 81 164 74 67 -5 74 -8
123 -50 46 -40 54 -52 64 -101 20 -100 27 -112 28 -51 1 30 4 65 7 77 5 18 -6
35 -52 83 l-59 61 -78 6 c-85 6 -102 17 -88 55 15 39 58 51 149 43 79 -7 80
-7 131 -59 44 -45 52 -59 62 -111 6 -33 13 -62 15 -64 8 -9 44 112 58 200 8
45 42 91 65 87 13 -3 16 -18 15 -93z m-2220 -22 c3 -4 13 -8 21 -9 7 -1 53
-11 102 -22 229 -53 454 -61 598 -22 135 37 125 37 125 -3 0 -39 -2 -40 -120
-66 -134 -28 -309 -21 -475 19 -104 26 -285 90 -285 101 0 11 24 12 34 2z
m114 -127 c128 -53 225 -70 397 -70 159 0 194 5 298 49 15 6 17 1 17 -38 l0
-44 -47 -14 c-31 -9 -99 -14 -193 -14 -118 0 -160 4 -225 22 -95 26 -285 98
-311 118 -29 22 0 18 64 -9z m-48 -59 c252 -76 473 -117 634 -117 53 0 96 -3
96 -7 0 -4 -12 -50 -27 -101 l-26 -95 -71 6 c-39 3 -100 16 -136 28 -128 44
-579 287 -580 313 0 4 6 6 13 3 6 -2 50 -16 97 -30z m-446 -118 c281 -118 655
-326 854 -476 46 -35 85 -63 88 -63 14 0 -2 36 -39 86 -80 108 -327 287 -619
448 -38 21 -68 39 -68 41 0 3 37 -12 83 -31 321 -138 545 -223 684 -259 106
-28 134 -30 150 -14 9 9 24 -13 58 -82 84 -168 103 -166 70 9 -13 64 -21 119
-20 121 2 1 25 -7 51 -20 63 -32 168 -147 231 -255 l52 -89 -37 -18 c-88 -43
-182 -171 -269 -367 -29 -67 -54 -111 -65 -113 -24 -7 -26 -2 -17 51 10 60 10
255 0 307 -6 35 -8 28 -15 -55 -9 -118 -28 -209 -57 -277 -18 -45 -27 -54 -58
-63 -20 -5 -41 -10 -47 -10 -7 0 -16 57 -24 158 -15 178 -18 176 -51 -40 l-22
-146 -46 -12 c-25 -6 -54 -13 -63 -16 -15 -4 -18 1 -18 30 0 20 -7 80 -15 134
-64 421 -274 669 -650 768 -88 24 -124 27 -305 31 -113 3 -209 9 -214 13 -4 4
-5 27 -1 50 8 47 54 106 112 141 36 23 141 68 157 69 4 0 63 -23 130 -51z
m1529 -30 l27 -12 -1 -201 0 -201 -79 156 c-79 156 -105 190 -177 228 -13 6
-23 16 -23 21 0 28 196 35 253 9z m486 -55 c2 -2 -19 -28 -47 -59 -107 -117
-207 -314 -282 -555 -23 -74 -44 -142 -47 -150 -3 -12 -9 -9 -24 10 -25 31
-21 62 26 222 67 225 140 368 244 480 59 63 67 68 95 62 17 -3 33 -8 35 -10z
m-1896 -259 c98 -28 193 -68 220 -93 11 -9 35 -41 53 -69 116 -181 184 -401
214 -690 12 -112 11 -113 -14 -170 -34 -73 -83 -133 -142 -172 -57 -38 -33
-42 41 -7 64 29 125 96 155 168 22 55 24 57 82 73 59 16 59 16 78 -7 26 -32
107 -169 114 -193 9 -31 -57 -91 -126 -115 -31 -11 -88 -23 -127 -26 -110 -10
-73 -24 64 -24 101 0 134 4 176 20 l52 21 -5 -78 c-5 -91 -35 -159 -99 -228
-42 -46 -135 -89 -254 -120 -86 -22 -282 -39 -358 -31 -64 7 -65 7 -115 69
-27 34 -68 89 -90 122 -42 65 -132 238 -132 256 0 6 30 -17 67 -51 67 -61 174
-121 241 -135 47 -10 39 5 -26 45 -31 19 -125 103 -208 185 -170 168 -159 148
-219 388 -35 142 -23 158 36 47 66 -124 256 -367 273 -349 2 2 -17 36 -42 75
-107 162 -235 421 -322 653 l-43 114 16 79 c27 137 84 221 171 252 65 23 171
20 269 -9z m1487 -293 c0 -5 -10 -28 -22 -53 -12 -24 -27 -68 -34 -97 -12 -52
-12 -54 17 -86 16 -19 43 -39 60 -46 29 -12 37 -10 120 30 97 48 89 37 101
149 4 32 32 50 56 35 13 -9 19 -32 24 -100 4 -49 6 -98 3 -109 -3 -11 -25 -35
-50 -53 -25 -18 -45 -37 -45 -42 0 -12 60 8 82 27 26 23 53 12 51 -21 -3 -38
-46 -92 -94 -116 -21 -11 -39 -25 -39 -30 0 -15 41 -12 74 5 38 20 39 19 31
-12 -9 -40 -39 -68 -93 -89 -46 -18 -47 -18 -18 -24 39 -7 38 -20 -4 -48 -46
-31 -151 -61 -237 -69 -70 -6 -74 -7 -93 -41 -42 -70 -137 -189 -225 -281 -83
-86 -287 -261 -305 -261 -4 0 1 30 12 68 28 97 36 287 14 372 -20 81 -63 169
-116 238 -22 28 -38 52 -36 52 2 0 102 32 222 70 129 42 228 69 241 65 12 -3
52 -25 89 -50 36 -25 68 -45 70 -45 1 0 -1 13 -6 29 -12 44 -39 79 -79 103
-20 12 -38 23 -40 24 -2 2 14 38 36 81 22 43 60 122 83 176 48 110 85 157 124
157 14 0 26 -4 26 -8z m249 -2177 c17 -20 31 -38 31 -41 0 -10 -125 -63 -185
-79 -166 -44 -434 -57 -702 -34 -241 20 -242 25 -6 32 361 12 596 50 748 122
39 18 73 34 76 34 4 1 21 -15 38 -34z"/>
<path d="M2067 3951 c-21 -3 -38 -10 -39 -16 -1 -9 328 -225 344 -225 18 0 -4
169 -24 181 -27 17 -194 69 -218 68 -14 -1 -42 -5 -63 -8z"/>
<path d="M1910 3912 c0 -16 33 -38 217 -146 169 -98 214 -118 227 -98 2 4 -83
62 -189 130 -140 88 -202 122 -224 122 -17 0 -31 -4 -31 -8z"/>
</g>
</svg>
